Coordinates
version=1
nRows=14
nColumns=24
inDegrees=yes

Units are S.I. units (second, meters, Newtons, ...)
Angles are in degrees.

endheader
time	pelvis_tilt	pelvis_list	pelvis_rotation	pelvis_tx	pelvis_ty	pelvis_tz	hip_flexion_r	hip_adduction_r	hip_rotation_r	knee_angle_r	ankle_angle_r	subtalar_angle_r	mtp_angle_r	hip_flexion_l	hip_adduction_l	hip_rotation_l	knee_angle_l	ankle_angle_l	subtalar_angle_l	mtp_angle_l	lumbar_extension	lumbar_bending	lumbar_rotation
      5.03000000	     -7.41773156	      1.51400597	     -7.22184858	     -0.46855386	     -0.04344300	      0.59556091	     -8.51865186	      0.03572912	      0.39421893	    -10.95550669	     14.49043455	      1.94241313	      4.73035907	     35.51233267	     -3.05854644	    -14.62563174	    -13.46018215	     -1.47287321	     16.13922721	     -7.94439510	      4.68739862	      0.13655928	     14.55279684
      5.03500000	     -7.43267788	      1.87509611	     -7.36368976	     -0.46157740	     -0.04455251	      0.59539623	     -8.67359471	     -0.46420302	      0.36754973	    -11.46349913	     14.56749778	      2.16389734	      4.63827912	     35.53616759	     -2.77112092	    -14.98175272	    -13.96295257	     -2.30879010	     15.73440029	     -6.50747021	      4.82076739	     -0.30842088	     14.60154321
      5.04000000	     -7.47752734	      2.20297068	     -7.41740479	     -0.45457132	     -0.04566991	      0.59516755	     -8.82013027	     -0.91169826	      0.28229612	    -11.94234385	     14.55235242	      2.31348119	      4.59356226	     35.63529313	     -2.48650637	    -15.23690427	    -14.55385343	     -3.26970858	     15.43677061	     -4.92456708	      4.98277986	     -0.73891393	     14.54924303
      5.04500000	     -7.52849195	      2.59348609	     -7.59198480	     -0.44759048	     -0.04668038	      0.59494373	     -8.89725156	     -1.45797166	      0.38000209	    -12.49089734	     14.50631108	      2.48557168	      4.64917195	     35.73114629	     -2.19183677	    -15.40651957	    -15.20542220	     -4.08263762	     15.03359776	     -4.17606547	      5.15659268	     -1.19478057	     14.62554419
      5.05000000	     -7.53984397	      2.98797790	     -7.59462738	     -0.44051167	     -0.04765888	      0.59458036	     -9.03709612	     -2.00030228	      0.16382352	    -13.04402114	     14.43911393	      2.79460253	      4.68874480	     35.82448042	     -1.80760603	    -15.48511168	    -15.86445868	     -5.15865052	     14.68711955	     -2.58884392	      5.29161352	     -1.69907642	     14.50208209
      5.05500000	     -7.62083578	      3.40898374	     -7.67762321	     -0.43341370	     -0.04856731	      0.59431638	     -9.09675047	     -2.55883178	      0.29682514	    -13.57316194	     14.22907801	      2.81179105	      4.73760264	     36.01993226	     -1.45815825	    -15.49789492	    -16.68437645	     -5.86258323	     14.43864105	     -2.36192185	      5.51722733	     -2.21012853	     14.48644044
      5.06000000	     -7.62444234	      3.85854181	     -7.78193601	     -0.42640973	     -0.04933812	      0.59388221	     -9.13122452	     -3.21232411	      0.12227107	    -14.27673749	     14.08353831	      3.35905593	      4.91998605	     36.12198052	     -1.03818989	    -15.35921190	    -17.40931209	     -6.80319251	     13.72476401	     -1.31677611	      5.63928194	     -2.73295740	     14.46523519
      5.06500000	     -7.63377414	      4.28050595	     -7.74116561	     -0.41924358	     -0.05005964	      0.59343142	     -9.23025872	     -3.79825527	     -0.08846570	    -14.89805046	     13.76191276	      3.67624591	      5.06396109	     36.28368676	     -0.60200871	    -15.24161186	    -18.25650573	     -7.60973757	     13.30051156	     -0.30488501	      5.78245983	     -3.27067559	     14.30296255
      5.07000000	     -7.66272592	      4.72390436	     -7.76777380	     -0.41210630	     -0.05071156	      0.59300879	     -9.25193503	     -4.41982061	     -0.15383900	    -15.59285825	     13.38566914	      3.98470856	      5.24537043	     36.47377464	     -0.16511544	    -15.01978848	    -19.16916950	     -8.14418115	     12.74705083	      0.07570203	      5.94982248	     -3.80802963	     14.21701119
      5.07500000	     -7.68645364	      5.15954393	     -7.79301313	     -0.40494476	     -0.05127303	      0.59255728	     -9.24603323	     -5.04396109	     -0.22701392	    -16.34326730	     12.91186569	      4.34289388	      5.45794730	     36.65974391	      0.27829155	    -14.75737787	    -20.11156748	     -8.50972048	     12.14771178	      0.27272722	      6.11486183	     -4.33080986	     14.13915867
      5.08000000	     -7.72382290	      5.61042901	     -7.80109852	     -0.39771692	     -0.05178746	      0.59218833	     -9.20358179	     -5.67074801	     -0.25176386	    -17.14047883	     12.35857347	      4.61685899	      5.64688415	     36.85227523	      0.73823500	    -14.48909963	    -21.06614499	     -8.71276425	     11.62822695	      0.37421131	      6.30966081	     -4.88832544	     14.04077334
      5.08500000	     -7.71492324	      6.00623199	     -7.77119251	     -0.39062525	     -0.05219935	      0.59157490	     -9.13574034	     -6.29099840	     -0.51398440	    -18.06784092	     11.75980247	      5.27179428	      6.05261073	     36.99228977	      1.21768419	    -14.11111280	    -22.00408843	     -8.84438555	     10.94093799	      0.46288833	      6.41097804	     -5.36612165	     13.91426757
      5.09000000	     -7.73948456	      6.42251858	     -7.74970640	     -0.38337440	     -0.05256414	      0.59111002	     -9.02768298	     -6.90391587	     -0.58032884	    -19.00819486	     11.01459072	      5.65585167	      6.35336901	     37.12914469	      1.68904867	    -13.86998651	    -22.91551709	     -8.79785179	     10.42496192	      0.52921489	      6.58801452	     -5.87320200	     13.81887295
      5.09500000	     -7.74811126	      6.78372454	     -7.73124619	     -0.37625014	     -0.05283517	      0.59057211	     -8.85513076	     -7.49334974	     -0.77054845	    -20.07538674	     10.19784671	      6.28403176	      6.79638428	     37.22164483	      2.13267867	    -13.58701613	    -23.78384314	     -8.67336651	      9.86255515	      0.59227526	      6.71749393	     -6.31572389	     13.72720892
